<svg xmlns="http://www.w3.org/2000/svg" xmlns:xlink="http://www.w3.org/1999/xlink" contentStyleType="text/css" height="953px" preserveAspectRatio="none" style="width:1060px;height:953px;background:#FFFFFF;" version="1.1" viewBox="0 0 1060 953" width="1060px" zoomAndPan="magnify"><defs/><g><!--class Comment--><g id="elem_Comment"><rect codeLine="1" fill="#F1F1F1" height="162.0781" id="Comment" rx="2.5" ry="2.5" style="stroke:#181818;stroke-width:0.5;" width="178.8379" x="289.23" y="180.89"/><ellipse cx="340.103" cy="196.89" fill="#ADD1B2" rx="11" ry="11" style="stroke:#181818;stroke-width:1.0;"/><path d="M343.0718,202.5306 Q342.4937,202.8275 341.853,202.9681 Q341.2124,203.1244 340.5093,203.1244 Q338.0093,203.1244 336.6812,201.4838 Q335.3687,199.8275 335.3687,196.7025 Q335.3687,193.5775 336.6812,191.9213 Q338.0093,190.265 340.5093,190.265 Q341.2124,190.265 341.853,190.4213 Q342.5093,190.5775 343.0718,190.8744 L343.0718,193.5931 Q342.4468,193.015 341.853,192.7494 Q341.2593,192.4681 340.6343,192.4681 Q339.2905,192.4681 338.603,193.5463 Q337.9155,194.6088 337.9155,196.7025 Q337.9155,198.7963 338.603,199.8744 Q339.2905,200.9369 340.6343,200.9369 Q341.2593,200.9369 341.853,200.6713 Q342.4468,200.39 343.0718,199.8119 L343.0718,202.5306 Z " fill="#000000"/><text fill="#000000" font-family="sans-serif" font-size="14" lengthAdjust="spacing" textLength="68.5918" x="360.603" y="201.7367">Comment</text><line style="stroke:#181818;stroke-width:0.5;" x1="290.23" x2="467.0679" y1="212.89" y2="212.89"/><ellipse cx="300.23" cy="226.5384" fill="none" rx="3" ry="3" style="stroke:#038048;stroke-width:1.0;"/><text fill="#000000" font-family="sans-serif" font-size="14" lengthAdjust="spacing" textLength="57.3467" x="309.23" y="229.8851">id: UUID</text><ellipse cx="300.23" cy="242.8353" fill="none" rx="3" ry="3" style="stroke:#038048;stroke-width:1.0;"/><text fill="#000000" font-family="sans-serif" font-size="14" lengthAdjust="spacing" textLength="78.8252" x="309.23" y="246.182">text: String</text><ellipse cx="300.23" cy="259.1322" fill="none" rx="3" ry="3" style="stroke:#038048;stroke-width:1.0;"/><text fill="#000000" font-family="sans-serif" font-size="14" lengthAdjust="spacing" textLength="101.2607" x="309.23" y="262.4789">user_id: String</text><ellipse cx="300.23" cy="275.4291" fill="none" rx="3" ry="3" style="stroke:#038048;stroke-width:1.0;"/><text fill="#000000" font-family="sans-serif" font-size="14" lengthAdjust="spacing" textLength="152.8379" x="309.23" y="278.7757">timestamp: DateTime</text><ellipse cx="300.23" cy="291.7259" fill="none" rx="3" ry="3" style="stroke:#038048;stroke-width:1.0;"/><text fill="#000000" font-family="sans-serif" font-size="14" lengthAdjust="spacing" textLength="116.1289" x="309.23" y="295.0726">language: String</text><ellipse cx="300.23" cy="308.0228" fill="none" rx="3" ry="3" style="stroke:#038048;stroke-width:1.0;"/><text fill="#000000" font-family="sans-serif" font-size="14" lengthAdjust="spacing" textLength="134.8525" x="309.23" y="311.3695">toxicityScore: Float</text><ellipse cx="300.23" cy="324.3197" fill="none" rx="3" ry="3" style="stroke:#038048;stroke-width:1.0;"/><text fill="#000000" font-family="sans-serif" font-size="14" lengthAdjust="spacing" textLength="114.0303" x="309.23" y="327.6664">isToxic: Boolean</text><line style="stroke:#181818;stroke-width:0.5;" x1="290.23" x2="467.0679" y1="334.9681" y2="334.9681"/></g><!--class Preprocessor--><g id="elem_Preprocessor"><rect codeLine="11" fill="#F1F1F1" height="80.5938" id="Preprocessor" rx="2.5" ry="2.5" style="stroke:#181818;stroke-width:0.5;" width="301.2969" x="7" y="444.41"/><ellipse cx="107.7788" cy="460.41" fill="#ADD1B2" rx="11" ry="11" style="stroke:#181818;stroke-width:1.0;"/><path d="M110.7476,466.0506 Q110.1694,466.3475 109.5288,466.4881 Q108.8882,466.6444 108.1851,466.6444 Q105.6851,466.6444 104.3569,465.0038 Q103.0444,463.3475 103.0444,460.2225 Q103.0444,457.0975 104.3569,455.4413 Q105.6851,453.785 108.1851,453.785 Q108.8882,453.785 109.5288,453.9413 Q110.1851,454.0975 110.7476,454.3944 L110.7476,457.1131 Q110.1226,456.535 109.5288,456.2694 Q108.9351,455.9881 108.3101,455.9881 Q106.9663,455.9881 106.2788,457.0663 Q105.5913,458.1288 105.5913,460.2225 Q105.5913,462.3163 106.2788,463.3944 Q106.9663,464.4569 108.3101,464.4569 Q108.9351,464.4569 109.5288,464.1913 Q110.1226,463.91 110.7476,463.3319 L110.7476,466.0506 Z " fill="#000000"/><text fill="#000000" font-family="sans-serif" font-size="14" lengthAdjust="spacing" textLength="91.2393" x="128.2788" y="465.2567">Preprocessor</text><line style="stroke:#181818;stroke-width:0.5;" x1="8" x2="307.2969" y1="476.41" y2="476.41"/><line style="stroke:#181818;stroke-width:0.5;" x1="8" x2="307.2969" y1="484.41" y2="484.41"/><ellipse cx="18" cy="498.0584" fill="#84BE84" rx="3" ry="3" style="stroke:#038048;stroke-width:1.0;"/><text fill="#000000" font-family="sans-serif" font-size="14" lengthAdjust="spacing" textLength="275.2969" x="27" y="501.4051">normalize(comment: Comment): String</text><ellipse cx="18" cy="514.3553" fill="#84BE84" rx="3" ry="3" style="stroke:#038048;stroke-width:1.0;"/><text fill="#000000" font-family="sans-serif" font-size="14" lengthAdjust="spacing" textLength="254.5771" x="27" y="517.702">detectLanguage(text: String): String</text></g><!--class ToxicityClassifier--><g id="elem_ToxicityClassifier"><rect codeLine="16" fill="#F1F1F1" height="96.8906" id="ToxicityClassifier" rx="2.5" ry="2.5" style="stroke:#181818;stroke-width:0.5;" width="375.3438" x="280.98" y="626.45"/><ellipse cx="405.1206" cy="642.45" fill="#ADD1B2" rx="11" ry="11" style="stroke:#181818;stroke-width:1.0;"/><path d="M408.0894,648.0906 Q407.5113,648.3875 406.8706,648.5281 Q406.23,648.6844 405.5269,648.6844 Q403.0269,648.6844 401.6988,647.0437 Q400.3863,645.3875 400.3863,642.2625 Q400.3863,639.1375 401.6988,637.4812 Q403.0269,635.825 405.5269,635.825 Q406.23,635.825 406.8706,635.9812 Q407.5269,636.1375 408.0894,636.4344 L408.0894,639.1531 Q407.4644,638.575 406.8706,638.3094 Q406.2769,638.0281 405.6519,638.0281 Q404.3081,638.0281 403.6206,639.1062 Q402.9331,640.1687 402.9331,642.2625 Q402.9331,644.3562 403.6206,645.4344 Q404.3081,646.4969 405.6519,646.4969 Q406.2769,646.4969 406.8706,646.2312 Q407.4644,645.95 408.0894,645.3719 L408.0894,648.0906 Z " fill="#000000"/><text fill="#000000" font-family="sans-serif" font-size="14" lengthAdjust="spacing" textLength="118.5625" x="425.6206" y="647.2967">ToxicityClassifier</text><line style="stroke:#181818;stroke-width:0.5;" x1="281.98" x2="655.3238" y1="658.45" y2="658.45"/><ellipse cx="291.98" cy="672.0984" fill="none" rx="3" ry="3" style="stroke:#038048;stroke-width:1.0;"/><text fill="#000000" font-family="sans-serif" font-size="14" lengthAdjust="spacing" textLength="147.1094" x="300.98" y="675.4451">modelVersion: String</text><line style="stroke:#181818;stroke-width:0.5;" x1="281.98" x2="655.3238" y1="682.7469" y2="682.7469"/><ellipse cx="291.98" cy="696.3953" fill="#84BE84" rx="3" ry="3" style="stroke:#038048;stroke-width:1.0;"/><text fill="#000000" font-family="sans-serif" font-size="14" lengthAdjust="spacing" textLength="349.3438" x="300.98" y="699.742">predict(text: String): (score: Float, label: Boolean)</text><ellipse cx="291.98" cy="712.6922" fill="#84BE84" rx="3" ry="3" style="stroke:#038048;stroke-width:1.0;"/><text fill="#000000" font-family="sans-serif" font-size="14" lengthAdjust="spacing" textLength="191.7139" x="300.98" y="716.0389">explain(text: String): String</text></g><!--class Moderator--><g id="elem_Moderator"><rect codeLine="22" fill="#F1F1F1" height="96.8906" id="Moderator" rx="2.5" ry="2.5" style="stroke:#181818;stroke-width:0.5;" width="429.71" x="500.79" y="7"/><ellipse cx="675.25" cy="23" fill="#ADD1B2" rx="11" ry="11" style="stroke:#181818;stroke-width:1.0;"/><path d="M678.2187,28.6406 Q677.6406,28.9375 677,29.0781 Q676.3593,29.2344 675.6562,29.2344 Q673.1562,29.2344 671.8281,27.5938 Q670.5156,25.9375 670.5156,22.8125 Q670.5156,19.6875 671.8281,18.0313 Q673.1562,16.375 675.6562,16.375 Q676.3593,16.375 677,16.5313 Q677.6562,16.6875 678.2187,16.9844 L678.2187,19.7031 Q677.5937,19.125 677,18.8594 Q676.4062,18.5781 675.7812,18.5781 Q674.4375,18.5781 673.75,19.6563 Q673.0625,20.7188 673.0625,22.8125 Q673.0625,24.9063 673.75,25.9844 Q674.4375,27.0469 675.7812,27.0469 Q676.4062,27.0469 677,26.7813 Q677.5937,26.5 678.2187,25.9219 L678.2187,28.6406 Z " fill="#000000"/><text fill="#000000" font-family="sans-serif" font-size="14" lengthAdjust="spacing" textLength="72.29" x="695.75" y="27.8467">Moderator</text><line style="stroke:#181818;stroke-width:0.5;" x1="501.79" x2="929.5" y1="39" y2="39"/><ellipse cx="511.79" cy="52.6484" fill="none" rx="3" ry="3" style="stroke:#038048;stroke-width:1.0;"/><text fill="#000000" font-family="sans-serif" font-size="14" lengthAdjust="spacing" textLength="63.7246" x="520.79" y="55.9951">id: String</text><line style="stroke:#181818;stroke-width:0.5;" x1="501.79" x2="929.5" y1="63.2969" y2="63.2969"/><ellipse cx="511.79" cy="76.9453" fill="#84BE84" rx="3" ry="3" style="stroke:#038048;stroke-width:1.0;"/><text fill="#000000" font-family="sans-serif" font-size="14" lengthAdjust="spacing" textLength="336.2529" x="520.79" y="80.292">reviewComment(comment: Comment): Boolean</text><ellipse cx="511.79" cy="93.2422" fill="#84BE84" rx="3" ry="3" style="stroke:#038048;stroke-width:1.0;"/><text fill="#000000" font-family="sans-serif" font-size="14" lengthAdjust="spacing" textLength="403.71" x="520.79" y="96.5889">sendFeedback(comment: Comment, label: Boolean): void</text></g><!--class FeedbackEngine--><g id="elem_FeedbackEngine"><rect codeLine="28" fill="#F1F1F1" height="80.5938" id="FeedbackEngine" rx="2.5" ry="2.5" style="stroke:#181818;stroke-width:0.5;" width="375.542" x="527.88" y="221.63"/><ellipse cx="653.692" cy="237.63" fill="#ADD1B2" rx="11" ry="11" style="stroke:#181818;stroke-width:1.0;"/><path d="M656.6608,243.2706 Q656.0826,243.5675 655.442,243.7081 Q654.8014,243.8644 654.0983,243.8644 Q651.5983,243.8644 650.2701,242.2238 Q648.9576,240.5675 648.9576,237.4425 Q648.9576,234.3175 650.2701,232.6613 Q651.5983,231.005 654.0983,231.005 Q654.8014,231.005 655.442,231.1613 Q656.0983,231.3175 656.6608,231.6144 L656.6608,234.3331 Q656.0358,233.755 655.442,233.4894 Q654.8483,233.2081 654.2233,233.2081 Q652.8795,233.2081 652.192,234.2863 Q651.5045,235.3488 651.5045,237.4425 Q651.5045,239.5363 652.192,240.6144 Q652.8795,241.6769 654.2233,241.6769 Q654.8483,241.6769 655.442,241.4113 Q656.0358,241.13 656.6608,240.5519 L656.6608,243.2706 Z " fill="#000000"/><text fill="#000000" font-family="sans-serif" font-size="14" lengthAdjust="spacing" textLength="115.418" x="674.192" y="242.4767">FeedbackEngine</text><line style="stroke:#181818;stroke-width:0.5;" x1="528.88" x2="902.422" y1="253.63" y2="253.63"/><line style="stroke:#181818;stroke-width:0.5;" x1="528.88" x2="902.422" y1="261.63" y2="261.63"/><ellipse cx="538.88" cy="275.2784" fill="#84BE84" rx="3" ry="3" style="stroke:#038048;stroke-width:1.0;"/><text fill="#000000" font-family="sans-serif" font-size="14" lengthAdjust="spacing" textLength="349.542" x="547.88" y="278.6251">collectFeedback(moderatorId: String): Feedback[]</text><ellipse cx="538.88" cy="291.5753" fill="#84BE84" rx="3" ry="3" style="stroke:#038048;stroke-width:1.0;"/><text fill="#000000" font-family="sans-serif" font-size="14" lengthAdjust="spacing" textLength="319.1221" x="547.88" y="294.922">trainNewModel(feedback: Feedback[]): Model</text></g><!--class Model--><g id="elem_Model"><rect codeLine="33" fill="#F1F1F1" height="129.4844" id="Model" rx="2.5" ry="2.5" style="stroke:#181818;stroke-width:0.5;" width="172.0225" x="574.64" y="419.96"/><ellipse cx="635.3841" cy="435.96" fill="#ADD1B2" rx="11" ry="11" style="stroke:#181818;stroke-width:1.0;"/><path d="M638.3529,441.6006 Q637.7748,441.8975 637.1341,442.0381 Q636.4935,442.1944 635.7904,442.1944 Q633.2904,442.1944 631.9623,440.5538 Q630.6498,438.8975 630.6498,435.7725 Q630.6498,432.6475 631.9623,430.9913 Q633.2904,429.335 635.7904,429.335 Q636.4935,429.335 637.1341,429.4913 Q637.7904,429.6475 638.3529,429.9444 L638.3529,432.6631 Q637.7279,432.085 637.1341,431.8194 Q636.5404,431.5381 635.9154,431.5381 Q634.5716,431.5381 633.8841,432.6163 Q633.1966,433.6788 633.1966,435.7725 Q633.1966,437.8663 633.8841,438.9444 Q634.5716,440.0069 635.9154,440.0069 Q636.5404,440.0069 637.1341,439.7413 Q637.7279,439.46 638.3529,438.8819 L638.3529,441.6006 Z " fill="#000000"/><text fill="#000000" font-family="sans-serif" font-size="14" lengthAdjust="spacing" textLength="42.0342" x="655.8841" y="440.8067">Model</text><line style="stroke:#181818;stroke-width:0.5;" x1="575.64" x2="745.6625" y1="451.96" y2="451.96"/><ellipse cx="585.64" cy="465.6084" fill="none" rx="3" ry="3" style="stroke:#038048;stroke-width:1.0;"/><text fill="#000000" font-family="sans-serif" font-size="14" lengthAdjust="spacing" textLength="102.2246" x="594.64" y="468.9551">version: String</text><ellipse cx="585.64" cy="481.9053" fill="none" rx="3" ry="3" style="stroke:#038048;stroke-width:1.0;"/><text fill="#000000" font-family="sans-serif" font-size="14" lengthAdjust="spacing" textLength="146.0225" x="594.64" y="485.252">createdAt: DateTime</text><ellipse cx="585.64" cy="498.2022" fill="none" rx="3" ry="3" style="stroke:#038048;stroke-width:1.0;"/><text fill="#000000" font-family="sans-serif" font-size="14" lengthAdjust="spacing" textLength="106.9072" x="594.64" y="501.5489">accuracy: Float</text><ellipse cx="585.64" cy="514.4991" fill="none" rx="3" ry="3" style="stroke:#038048;stroke-width:1.0;"/><text fill="#000000" font-family="sans-serif" font-size="14" lengthAdjust="spacing" textLength="82.168" x="594.64" y="517.8457">recall: Float</text><ellipse cx="585.64" cy="530.7959" fill="none" rx="3" ry="3" style="stroke:#038048;stroke-width:1.0;"/><text fill="#000000" font-family="sans-serif" font-size="14" lengthAdjust="spacing" textLength="107.208" x="594.64" y="534.1426">precision: Float</text><line style="stroke:#181818;stroke-width:0.5;" x1="575.64" x2="745.6625" y1="541.4444" y2="541.4444"/></g><!--class AuditLog--><g id="elem_AuditLog"><rect codeLine="41" fill="#F1F1F1" height="145.7813" id="AuditLog" rx="2.5" ry="2.5" style="stroke:#181818;stroke-width:0.5;" width="178.8379" x="710.23" y="800.34"/><ellipse cx="764.4151" cy="816.34" fill="#ADD1B2" rx="11" ry="11" style="stroke:#181818;stroke-width:1.0;"/><path d="M767.3838,821.9806 Q766.8057,822.2775 766.1651,822.4181 Q765.5244,822.5744 764.8213,822.5744 Q762.3213,822.5744 760.9932,820.9338 Q759.6807,819.2775 759.6807,816.1525 Q759.6807,813.0275 760.9932,811.3713 Q762.3213,809.715 764.8213,809.715 Q765.5244,809.715 766.1651,809.8713 Q766.8213,810.0275 767.3838,810.3244 L767.3838,813.0431 Q766.7588,812.465 766.1651,812.1994 Q765.5713,811.9181 764.9463,811.9181 Q763.6026,811.9181 762.9151,812.9963 Q762.2276,814.0588 762.2276,816.1525 Q762.2276,818.2463 762.9151,819.3244 Q763.6026,820.3869 764.9463,820.3869 Q765.5713,820.3869 766.1651,820.1213 Q766.7588,819.84 767.3838,819.2619 L767.3838,821.9806 Z " fill="#000000"/><text fill="#000000" font-family="sans-serif" font-size="14" lengthAdjust="spacing" textLength="61.9678" x="784.9151" y="821.1867">AuditLog</text><line style="stroke:#181818;stroke-width:0.5;" x1="711.23" x2="888.0679" y1="832.34" y2="832.34"/><ellipse cx="721.23" cy="845.9884" fill="none" rx="3" ry="3" style="stroke:#038048;stroke-width:1.0;"/><text fill="#000000" font-family="sans-serif" font-size="14" lengthAdjust="spacing" textLength="94.6025" x="730.23" y="849.3351">entryId: UUID</text><ellipse cx="721.23" cy="862.2853" fill="none" rx="3" ry="3" style="stroke:#038048;stroke-width:1.0;"/><text fill="#000000" font-family="sans-serif" font-size="14" lengthAdjust="spacing" textLength="124.0996" x="730.23" y="865.632">commentId: UUID</text><ellipse cx="721.23" cy="878.5822" fill="none" rx="3" ry="3" style="stroke:#038048;stroke-width:1.0;"/><text fill="#000000" font-family="sans-serif" font-size="14" lengthAdjust="spacing" textLength="136.4043" x="730.23" y="881.9289">prediction: Boolean</text><ellipse cx="721.23" cy="894.8791" fill="none" rx="3" ry="3" style="stroke:#038048;stroke-width:1.0;"/><text fill="#000000" font-family="sans-serif" font-size="14" lengthAdjust="spacing" textLength="146.7334" x="730.23" y="898.2257">actualLabel: Boolean</text><ellipse cx="721.23" cy="911.1759" fill="none" rx="3" ry="3" style="stroke:#038048;stroke-width:1.0;"/><text fill="#000000" font-family="sans-serif" font-size="14" lengthAdjust="spacing" textLength="137.8125" x="730.23" y="914.5226">moderatorId: String</text><ellipse cx="721.23" cy="927.4728" fill="none" rx="3" ry="3" style="stroke:#038048;stroke-width:1.0;"/><text fill="#000000" font-family="sans-serif" font-size="14" lengthAdjust="spacing" textLength="152.8379" x="730.23" y="930.8195">timestamp: DateTime</text><line style="stroke:#181818;stroke-width:0.5;" x1="711.23" x2="888.0679" y1="938.1213" y2="938.1213"/></g><!--link Comment to Preprocessor--><g id="link_Comment_Preprocessor"><path codeLine="50" d="M298.24,343.26 C263.93,377.53 229.6749,411.7496 201.6449,439.7496 " fill="none" id="Comment-to-Preprocessor" style="stroke:#181818;stroke-width:1.0;"/><polygon fill="#181818" points="197.4,443.99,206.5943,440.4594,200.9374,440.4564,200.9405,434.7995,197.4,443.99" style="stroke:#181818;stroke-width:1.0;"/><text fill="#000000" font-family="sans-serif" font-size="13" lengthAdjust="spacing" textLength="65.0127" x="269.15" y="386.0269">processes</text></g><!--link Preprocessor to ToxicityClassifier--><g id="link_Preprocessor_ToxicityClassifier"><path codeLine="51" d="M161.66,525.48 C166.06,549.11 175.29,577.98 194.65,596.45 C218.7,619.4 243.3892,633.5851 275.0292,645.0551 " fill="none" id="Preprocessor-to-ToxicityClassifier" style="stroke:#181818;stroke-width:1.0;"/><polygon fill="#181818" points="280.67,647.1,273.5721,640.2722,275.9693,645.3959,270.8456,647.7932,280.67,647.1" style="stroke:#181818;stroke-width:1.0;"/><text fill="#000000" font-family="sans-serif" font-size="13" lengthAdjust="spacing" textLength="156.5205" x="195.65" y="592.5169">provides processed text</text></g><!--link ToxicityClassifier to Comment--><g id="link_ToxicityClassifier_Comment"><path codeLine="52" d="M433.46,626.13 C419.06,603.95 403.87,576.53 395.65,549.45 C375.19,482.1 371.9893,407.8384 373.3593,349.4284 " fill="none" id="ToxicityClassifier-to-Comment" style="stroke:#181818;stroke-width:1.0;"/><polygon fill="#181818" points="373.5,343.43,369.2901,352.3337,373.3828,348.4286,377.2879,352.5213,373.5,343.43" style="stroke:#181818;stroke-width:1.0;"/><text fill="#000000" font-family="sans-serif" font-size="13" lengthAdjust="spacing" textLength="159.4595" x="396.65" y="489.2769">updates with score/label</text></g><!--link Moderator to Comment--><g id="link_Moderator_Comment"><path codeLine="53" d="M636.64,104.38 C586.25,134.96 525.9493,171.5471 473.5993,203.3171 " fill="none" id="Moderator-to-Comment" style="stroke:#181818;stroke-width:1.0;"/><polygon fill="#181818" points="468.47,206.43,478.2392,205.1802,472.7444,203.8359,474.0887,198.3411,468.47,206.43" style="stroke:#181818;stroke-width:1.0;"/><text fill="#000000" font-family="sans-serif" font-size="13" lengthAdjust="spacing" textLength="50.0513" x="588.24" y="146.9569">reviews</text></g><!--link Moderator to FeedbackEngine--><g id="link_Moderator_FeedbackEngine"><path codeLine="54" d="M715.65,104.38 C715.65,139.91 715.65,181.77 715.65,215.18 " fill="none" id="Moderator-to-FeedbackEngine" style="stroke:#181818;stroke-width:1.0;"/><polygon fill="#181818" points="715.65,221.18,719.65,212.18,715.65,216.18,711.65,212.18,715.65,221.18" style="stroke:#181818;stroke-width:1.0;"/><text fill="#000000" font-family="sans-serif" font-size="13" lengthAdjust="spacing" textLength="101.8862" x="716.65" y="146.9569">sends feedback</text></g><!--link FeedbackEngine to Model--><g id="link_FeedbackEngine_Model"><path codeLine="55" d="M705.75,302.65 C697.65,335.18 687.4809,376.0081 678.0609,413.8081 " fill="none" id="FeedbackEngine-to-Model" style="stroke:#181818;stroke-width:1.0;"/><polygon fill="#181818" points="676.61,419.63,682.6676,411.8643,677.8191,414.7784,674.905,409.9298,676.61,419.63" style="stroke:#181818;stroke-width:1.0;"/><text fill="#000000" font-family="sans-serif" font-size="13" lengthAdjust="spacing" textLength="37.0322" x="689.15" y="386.0269">trains</text></g><!--link FeedbackEngine to AuditLog--><g id="link_FeedbackEngine_AuditLog"><path codeLine="56" d="M730.77,302.63 C742.05,334.01 756.81,379.16 764.65,419.96 C790.1,552.41 797.0338,704.0413 798.9238,793.8913 " fill="none" id="FeedbackEngine-to-AuditLog" style="stroke:#181818;stroke-width:1.0;"/><polygon fill="#181818" points="799.05,799.89,802.8598,790.8079,798.9448,794.8911,794.8616,790.9761,799.05,799.89" style="stroke:#181818;stroke-width:1.0;"/><text fill="#000000" font-family="sans-serif" font-size="13" lengthAdjust="spacing" textLength="156.9458" x="789.16" y="592.5169">logs feedback collection</text></g><!--link Model to ToxicityClassifier--><g id="link_Model_ToxicityClassifier"><path codeLine="57" d="M595.11,549.94 C569.69,574.86 545.3743,598.6894 521.8143,621.7894 " fill="none" id="Model-to-ToxicityClassifier" style="stroke:#181818;stroke-width:1.0;"/><polygon fill="#181818" points="517.53,625.99,526.7568,622.5453,521.1002,622.4895,521.156,616.8329,517.53,625.99" style="stroke:#181818;stroke-width:1.0;"/><text fill="#000000" font-family="sans-serif" font-size="13" lengthAdjust="spacing" textLength="51.3398" x="565.65" y="592.5169">used by</text></g><!--link ToxicityClassifier to AuditLog--><g id="link_ToxicityClassifier_AuditLog"><path codeLine="58" d="M549.2,723.67 C597.8,752.5 654.6594,786.2292 704.8194,815.9792 " fill="none" id="ToxicityClassifier-to-AuditLog" style="stroke:#181818;stroke-width:1.0;"/><polygon fill="#181818" points="709.98,819.04,704.2796,811.0085,705.6795,816.4894,700.1986,817.8893,709.98,819.04" style="stroke:#181818;stroke-width:1.0;"/><text fill="#000000" font-family="sans-serif" font-size="13" lengthAdjust="spacing" textLength="96.2305" x="625.22" y="766.4069">logs prediction</text></g><!--link Moderator to AuditLog--><g id="link_Moderator_AuditLog"><path codeLine="59" d="M850.87,104.24 C916.2,136.82 980.65,187.56 980.65,260.92 C980.65,260.92 980.65,260.92 980.65,675.89 C980.65,735.58 939.6629,781.2806 894.1429,815.5606 " fill="none" id="Moderator-to-AuditLog" style="stroke:#181818;stroke-width:1.0;"/><polygon fill="#181818" points="889.35,819.17,898.9457,816.9511,893.3441,816.1621,894.1331,810.5606,889.35,819.17" style="stroke:#181818;stroke-width:1.0;"/><text fill="#000000" font-family="sans-serif" font-size="13" lengthAdjust="spacing" textLength="70.7383" x="981.65" y="489.2769">logs action</text></g><!--SRC=[XLDDQzmm4BtxLynnGnjwrw6G9WqiR48XcrvAALffuehAaf7a_MZfVwy-RTcxIs-IvitCcpTFJ59huLvt7Ie7Vng0Tu8JU7rTFuIpmwCZyEACK6su3nRDZm2Odfpeq3hQzGGUgCEjluPdILKxq1PdK7qKJBZJ2zF61nwbfYvsjDiG8V19QubKDN-RXaLYNmpsHZEqLfl4JcdJKIb-uuebqgImlwbRSNJ8t2QJMDLpJBYnpJOJkmytyIOmD-iqH_aLZHLQrTLxWrmmjooxijLWxq7I7Sfng9kGYCTUKg7-n-V9zpNKbPddWXlS2ppaeI-fK5JqM8kAFoBo7MM_pg1d30dijU0JZPBvMRL2OUB2j9HUsR5eLwYkUJLG2N_x7lTk_CpFU0XZoTLRZjKednA3SmbaQha_Nm0pwBt6xzpST9InmL1sghnba54fgmU_EoPIlVGsjhmRk70RtQQkNY1pMbT_8SjNFsKVn6ALwfIvWShDJDnYfuLMrtwG9rK-vUtjn_a_893FQ9jP820lM3dYzuAZ7HCv10Ss5y2XHkbCOEYvPsJX8DnFYEx-43tJJ0wT9oHpsaLyOIG2mPSMYXEQHJoafFqJYDwnbn3ZkWX8tKxL85lKRwL9LQxgCWGbTgThEYmxJEjUpBS4qWZw1m00]--></g></svg>